<svg id="visual" viewBox="0 0 960 540" width="960" height="540" xmlns="http://www.w3.org/2000/svg" xmlns:xlink="http://www.w3.org/1999/xlink" version="1.1"><g stroke-width="1" stroke-linejoin="bevel"><path d="M518.3 247L611 256L521.3 151Z" fill="#395b97" stroke="#2c0946"></path><path d="M611 256L649 181L521.3 151Z" fill="#323e88" stroke="#2c0946"></path><path d="M649 181L537.3 77L521.3 151Z" fill="#32448c" stroke="#2c0946"></path><path d="M649 181L667 94L537.3 77Z" fill="#333280" stroke="#2c0946"></path><path d="M611 256L719.7 183L649 181Z" fill="#333280" stroke="#2c0946"></path><path d="M649 181L719.7 183L667 94Z" fill="#365695" stroke="#2c0946"></path><path d="M518.3 247L563.3 372L611 256Z" fill="#3c609a" stroke="#2c0946"></path><path d="M611 256L752.7 278L719.7 183Z" fill="#365695" stroke="#2c0946"></path><path d="M389.7 203L518.3 247L521.3 151Z" fill="#395b97" stroke="#2c0946"></path><path d="M389.7 203L417.7 283L518.3 247Z" fill="#365695" stroke="#2c0946"></path><path d="M518.3 247L459.7 337L563.3 372Z" fill="#333280" stroke="#2c0946"></path><path d="M417.7 283L459.7 337L518.3 247Z" fill="#365695" stroke="#2c0946"></path><path d="M442.7 57L389.7 203L521.3 151Z" fill="#32448c" stroke="#2c0946"></path><path d="M454.7 0L442.7 57L537.3 77Z" fill="#323884" stroke="#2c0946"></path><path d="M537.3 77L442.7 57L521.3 151Z" fill="#3c609a" stroke="#2c0946"></path><path d="M645 421L613 393L563.3 451Z" fill="#32448c" stroke="#2c0946"></path><path d="M563.3 372L613 393L611 256Z" fill="#333280" stroke="#2c0946"></path><path d="M745.7 359L752.7 278L611 256Z" fill="#334a8f" stroke="#2c0946"></path><path d="M626 0L542.3 0L537.3 77Z" fill="#323e88" stroke="#2c0946"></path><path d="M731.7 53L626 0L667 94Z" fill="#345092" stroke="#2c0946"></path><path d="M667 94L626 0L537.3 77Z" fill="#333280" stroke="#2c0946"></path><path d="M851.3 190L731.7 53L719.7 183Z" fill="#40669c" stroke="#2c0946"></path><path d="M719.7 183L731.7 53L667 94Z" fill="#446b9e" stroke="#2c0946"></path><path d="M542.3 0L454.7 0L537.3 77Z" fill="#333280" stroke="#2c0946"></path><path d="M338 69L318 183L389.7 203Z" fill="#446b9e" stroke="#2c0946"></path><path d="M563.3 451L613 393L563.3 372Z" fill="#32448c" stroke="#2c0946"></path><path d="M613 393L745.7 359L611 256Z" fill="#395b97" stroke="#2c0946"></path><path d="M645 421L745.7 359L613 393Z" fill="#40669c" stroke="#2c0946"></path><path d="M459.7 337L563.3 451L563.3 372Z" fill="#323e88" stroke="#2c0946"></path><path d="M338 69L389.7 203L442.7 57Z" fill="#323884" stroke="#2c0946"></path><path d="M292 255L324 325L417.7 283Z" fill="#32448c" stroke="#2c0946"></path><path d="M417.7 283L324 325L459.7 337Z" fill="#323884" stroke="#2c0946"></path><path d="M459.7 337L420.7 471L563.3 451Z" fill="#323884" stroke="#2c0946"></path><path d="M328 0L338 69L442.7 57Z" fill="#446b9e" stroke="#2c0946"></path><path d="M745.7 359L825.3 285L752.7 278Z" fill="#446b9e" stroke="#2c0946"></path><path d="M752.7 278L851.3 190L719.7 183Z" fill="#323884" stroke="#2c0946"></path><path d="M292 255L417.7 283L389.7 203Z" fill="#323e88" stroke="#2c0946"></path><path d="M855.3 59L763.7 0L731.7 53Z" fill="#323e88" stroke="#2c0946"></path><path d="M731.7 53L763.7 0L626 0Z" fill="#345092" stroke="#2c0946"></path><path d="M825.3 285L851.3 190L752.7 278Z" fill="#345092" stroke="#2c0946"></path><path d="M318 183L292 255L389.7 203Z" fill="#3c609a" stroke="#2c0946"></path><path d="M240.3 293L292 255L176.3 201Z" fill="#323e88" stroke="#2c0946"></path><path d="M745.7 359L840.3 341L825.3 285Z" fill="#395b97" stroke="#2c0946"></path><path d="M960 281L960 150L851.3 190Z" fill="#32448c" stroke="#2c0946"></path><path d="M852.3 417L840.3 341L745.7 359Z" fill="#395b97" stroke="#2c0946"></path><path d="M324 325L420.7 471L459.7 337Z" fill="#446b9e" stroke="#2c0946"></path><path d="M454.7 0L328 0L442.7 57Z" fill="#323884" stroke="#2c0946"></path><path d="M176.3 201L292 255L318 183Z" fill="#334a8f" stroke="#2c0946"></path><path d="M851.3 190L855.3 59L731.7 53Z" fill="#40669c" stroke="#2c0946"></path><path d="M855.3 59L843.3 0L763.7 0Z" fill="#446b9e" stroke="#2c0946"></path><path d="M292 255L240.3 293L324 325Z" fill="#334a8f" stroke="#2c0946"></path><path d="M324 325L307 431L420.7 471Z" fill="#334a8f" stroke="#2c0946"></path><path d="M221.3 93L318 183L338 69Z" fill="#345092" stroke="#2c0946"></path><path d="M420.7 471L519.3 540L563.3 451Z" fill="#395b97" stroke="#2c0946"></path><path d="M563.3 451L660 540L645 421Z" fill="#32448c" stroke="#2c0946"></path><path d="M645 421L780.7 477L745.7 359Z" fill="#365695" stroke="#2c0946"></path><path d="M737.7 540L780.7 477L645 421Z" fill="#32448c" stroke="#2c0946"></path><path d="M420.7 471L401.7 540L519.3 540Z" fill="#32448c" stroke="#2c0946"></path><path d="M238.3 354L307 431L324 325Z" fill="#323e88" stroke="#2c0946"></path><path d="M519.3 540L660 540L563.3 451Z" fill="#345092" stroke="#2c0946"></path><path d="M780.7 477L852.3 417L745.7 359Z" fill="#333280" stroke="#2c0946"></path><path d="M960 281L851.3 190L825.3 285Z" fill="#323884" stroke="#2c0946"></path><path d="M851.3 190L960 150L855.3 59Z" fill="#333280" stroke="#2c0946"></path><path d="M328 0L221.3 93L338 69Z" fill="#334a8f" stroke="#2c0946"></path><path d="M143.7 382L238.3 354L240.3 293Z" fill="#334a8f" stroke="#2c0946"></path><path d="M240.3 293L238.3 354L324 325Z" fill="#333280" stroke="#2c0946"></path><path d="M322 540L401.7 540L420.7 471Z" fill="#365695" stroke="#2c0946"></path><path d="M322 540L420.7 471L307 431Z" fill="#323e88" stroke="#2c0946"></path><path d="M660 540L737.7 540L645 421Z" fill="#3c609a" stroke="#2c0946"></path><path d="M780.7 477L854.3 540L852.3 417Z" fill="#345092" stroke="#2c0946"></path><path d="M221.3 93L176.3 201L318 183Z" fill="#345092" stroke="#2c0946"></path><path d="M960 281L825.3 285L840.3 341Z" fill="#3c609a" stroke="#2c0946"></path><path d="M855.3 59L960 0L843.3 0Z" fill="#334a8f" stroke="#2c0946"></path><path d="M143.7 382L237.3 416L238.3 354Z" fill="#323884" stroke="#2c0946"></path><path d="M238.3 354L237.3 416L307 431Z" fill="#323e88" stroke="#2c0946"></path><path d="M960 332L960 281L840.3 341Z" fill="#323884" stroke="#2c0946"></path><path d="M960 150L960 101L855.3 59Z" fill="#32448c" stroke="#2c0946"></path><path d="M328 0L214.3 0L221.3 93Z" fill="#3c609a" stroke="#2c0946"></path><path d="M221.3 93L105.7 162L176.3 201Z" fill="#446b9e" stroke="#2c0946"></path><path d="M960 428L960 332L852.3 417Z" fill="#333280" stroke="#2c0946"></path><path d="M852.3 417L960 332L840.3 341Z" fill="#446b9e" stroke="#2c0946"></path><path d="M237.3 416L322 540L307 431Z" fill="#323884" stroke="#2c0946"></path><path d="M960 101L960 0L855.3 59Z" fill="#323e88" stroke="#2c0946"></path><path d="M737.7 540L854.3 540L780.7 477Z" fill="#395b97" stroke="#2c0946"></path><path d="M854.3 540L960 428L852.3 417Z" fill="#446b9e" stroke="#2c0946"></path><path d="M91.7 256L143.7 382L240.3 293Z" fill="#323e88" stroke="#2c0946"></path><path d="M237.3 416L183.3 540L322 540Z" fill="#395b97" stroke="#2c0946"></path><path d="M104.7 83L105.7 162L221.3 93Z" fill="#3c609a" stroke="#2c0946"></path><path d="M176.3 201L91.7 256L240.3 293Z" fill="#3c609a" stroke="#2c0946"></path><path d="M214.3 0L104.7 83L221.3 93Z" fill="#32448c" stroke="#2c0946"></path><path d="M0 170L91.7 256L105.7 162Z" fill="#3c609a" stroke="#2c0946"></path><path d="M105.7 162L91.7 256L176.3 201Z" fill="#323884" stroke="#2c0946"></path><path d="M0 324L128.7 425L143.7 382Z" fill="#40669c" stroke="#2c0946"></path><path d="M143.7 382L128.7 425L237.3 416Z" fill="#40669c" stroke="#2c0946"></path><path d="M128.7 425L183.3 540L237.3 416Z" fill="#446b9e" stroke="#2c0946"></path><path d="M854.3 540L960 540L960 428Z" fill="#323e88" stroke="#2c0946"></path><path d="M214.3 0L88.7 0L104.7 83Z" fill="#333280" stroke="#2c0946"></path><path d="M0 81L0 170L105.7 162Z" fill="#3c609a" stroke="#2c0946"></path><path d="M0 81L105.7 162L104.7 83Z" fill="#32448c" stroke="#2c0946"></path><path d="M91.7 256L0 324L143.7 382Z" fill="#32448c" stroke="#2c0946"></path><path d="M128.7 425L79.7 540L183.3 540Z" fill="#446b9e" stroke="#2c0946"></path><path d="M0 170L0 271L91.7 256Z" fill="#345092" stroke="#2c0946"></path><path d="M88.7 0L0 81L104.7 83Z" fill="#40669c" stroke="#2c0946"></path><path d="M0 271L0 324L91.7 256Z" fill="#446b9e" stroke="#2c0946"></path><path d="M0 484L79.7 540L128.7 425Z" fill="#365695" stroke="#2c0946"></path><path d="M88.7 0L0 0L0 81Z" fill="#345092" stroke="#2c0946"></path><path d="M0 324L0 484L128.7 425Z" fill="#365695" stroke="#2c0946"></path><path d="M0 484L0 540L79.7 540Z" fill="#395b97" stroke="#2c0946"></path></g></svg>