<svg id="visual" viewBox="0 0 960 540" width="960" height="540" xmlns="http://www.w3.org/2000/svg" xmlns:xlink="http://www.w3.org/1999/xlink" version="1.1"><path d="M0 195L87 195L87 141L175 141L175 87L262 87L262 141L349 141L349 109L436 109L436 114L524 114L524 233L611 233L611 104L698 104L698 71L785 71L785 114L873 114L873 222L960 222L960 120L960 0L960 0L873 0L873 0L785 0L785 0L698 0L698 0L611 0L611 0L524 0L524 0L436 0L436 0L349 0L349 0L262 0L262 0L175 0L175 0L87 0L87 0L0 0Z" fill="#55b0bb"></path><path d="M0 309L87 309L87 195L175 195L175 158L262 158L262 201L349 201L349 190L436 190L436 217L524 217L524 282L611 282L611 201L698 201L698 158L785 158L785 147L873 147L873 341L960 341L960 174L960 118L960 220L873 220L873 112L785 112L785 69L698 69L698 102L611 102L611 231L524 231L524 112L436 112L436 107L349 107L349 139L262 139L262 85L175 85L175 139L87 139L87 193L0 193Z" fill="#43a0b8"></path><path d="M0 384L87 384L87 352L175 352L175 341L262 341L262 341L349 341L349 384L436 384L436 433L524 433L524 444L611 444L611 357L698 357L698 357L785 357L785 368L873 368L873 449L960 449L960 347L960 172L960 339L873 339L873 145L785 145L785 156L698 156L698 199L611 199L611 280L524 280L524 215L436 215L436 188L349 188L349 199L262 199L262 156L175 156L175 193L87 193L87 307L0 307Z" fill="#398fb2"></path><path d="M0 492L87 492L87 471L175 471L175 482L262 482L262 449L349 449L349 476L436 476L436 498L524 498L524 503L611 503L611 487L698 487L698 509L785 509L785 449L873 449L873 498L960 498L960 471L960 345L960 447L873 447L873 366L785 366L785 355L698 355L698 355L611 355L611 442L524 442L524 431L436 431L436 382L349 382L349 339L262 339L262 339L175 339L175 350L87 350L87 382L0 382Z" fill="#3b7daa"></path><path d="M0 541L87 541L87 541L175 541L175 541L262 541L262 541L349 541L349 541L436 541L436 541L524 541L524 541L611 541L611 541L698 541L698 541L785 541L785 541L873 541L873 541L960 541L960 541L960 469L960 496L873 496L873 447L785 447L785 507L698 507L698 485L611 485L611 501L524 501L524 496L436 496L436 474L349 474L349 447L262 447L262 480L175 480L175 469L87 469L87 490L0 490Z" fill="#446b9e"></path></svg>