<svg id="visual" viewBox="0 0 960 540" width="960" height="540" xmlns="http://www.w3.org/2000/svg" xmlns:xlink="http://www.w3.org/1999/xlink" version="1.1"><path d="M0 33L20 29.5C40 26 80 19 120 17.3C160 15.7 200 19.3 240 35.5C280 51.7 320 80.3 360 82C400 83.7 440 58.3 480 42.2C520 26 560 19 600 20.8C640 22.7 680 33.3 720 43.2C760 53 800 62 840 61.2C880 60.3 920 49.7 940 44.3L960 39L960 0L940 0C920 0 880 0 840 0C800 0 760 0 720 0C680 0 640 0 600 0C560 0 520 0 480 0C440 0 400 0 360 0C320 0 280 0 240 0C200 0 160 0 120 0C80 0 40 0 20 0L0 0Z" fill="#333280"></path><path d="M0 152L20 146.7C40 141.3 80 130.7 120 125.3C160 120 200 120 240 120.8C280 121.7 320 123.3 360 133.2C400 143 440 161 480 153.8C520 146.7 560 114.3 600 109.8C640 105.3 680 128.7 720 134C760 139.3 800 126.7 840 119.5C880 112.3 920 110.7 940 109.8L960 109L960 37L940 42.3C920 47.7 880 58.3 840 59.2C800 60 760 51 720 41.2C680 31.3 640 20.7 600 18.8C560 17 520 24 480 40.2C440 56.3 400 81.7 360 80C320 78.3 280 49.7 240 33.5C200 17.3 160 13.7 120 15.3C80 17 40 24 20 27.5L0 31Z" fill="#322b75"></path><path d="M0 255L20 254C40 253 80 251 120 255.5C160 260 200 271 240 307C280 343 320 404 360 400.3C400 396.7 440 328.3 480 296C520 263.7 560 267.3 600 257.5C640 247.7 680 224.3 720 217.2C760 210 800 219 840 241.5C880 264 920 300 940 318L960 336L960 107L940 107.8C920 108.7 880 110.3 840 117.5C800 124.7 760 137.3 720 132C680 126.7 640 103.3 600 107.8C560 112.3 520 144.7 480 151.8C440 159 400 141 360 131.2C320 121.3 280 119.7 240 118.8C200 118 160 118 120 123.3C80 128.7 40 139.3 20 144.7L0 150Z" fill="#30256a"></path><path d="M0 438L20 436.3C40 434.7 80 431.3 120 439.5C160 447.7 200 467.3 240 480.8C280 494.3 320 501.7 360 484.5C400 467.3 440 425.7 480 413C520 400.3 560 416.7 600 437.5C640 458.3 680 483.7 720 480C760 476.3 800 443.7 840 424.7C880 405.7 920 400.3 940 397.7L960 395L960 334L940 316C920 298 880 262 840 239.5C800 217 760 208 720 215.2C680 222.3 640 245.7 600 255.5C560 265.3 520 261.7 480 294C440 326.3 400 394.7 360 398.3C320 402 280 341 240 305C200 269 160 258 120 253.5C80 249 40 251 20 252L0 253Z" fill="#2e1f5f"></path><path d="M0 541L20 541C40 541 80 541 120 541C160 541 200 541 240 541C280 541 320 541 360 541C400 541 440 541 480 541C520 541 560 541 600 541C640 541 680 541 720 541C760 541 800 541 840 541C880 541 920 541 940 541L960 541L960 393L940 395.7C920 398.3 880 403.7 840 422.7C800 441.7 760 474.3 720 478C680 481.7 640 456.3 600 435.5C560 414.7 520 398.3 480 411C440 423.7 400 465.3 360 482.5C320 499.7 280 492.3 240 478.8C200 465.3 160 445.7 120 437.5C80 429.3 40 432.7 20 434.3L0 436Z" fill="#2b1955"></path></svg>