<svg id="visual" viewBox="0 0 900 600" width="900" height="300" xmlns="http://www.w3.org/2000/svg" xmlns:xlink="http://www.w3.org/1999/xlink" version="1.1">
	<path d="M0 442L21.5 429.2C43 416.3 86 390.7 128.8 391.7C171.7 392.7 214.3 420.3 257.2 432.3C300 444.3 343 440.7 385.8 435.8C428.7 431 471.3 425 514.2 417.2C557 409.3 600 399.7 642.8 393.3C685.7 387 728.3 384 771.2 389.5C814 395 857 409 878.5 416L900 423L900 601L878.5 601C857 601 814 601 771.2 601C728.3 601 685.7 601 642.8 601C600 601 557 601 514.2 601C471.3 601 428.7 601 385.8 601C343 601 300 601 257.2 601C214.3 601 171.7 601 128.8 601C86 601 43 601 21.5 601L0 601Z" fill="#25d6b6"></path>
	<path d="M0 405L21.5 415.5C43 426 86 447 128.8 450.7C171.7 454.3 214.3 440.7 257.2 442.2C300 443.7 343 460.3 385.8 466.2C428.7 472 471.3 467 514.2 460C557 453 600 444 642.8 442.8C685.7 441.7 728.3 448.3 771.2 442.7C814 437 857 419 878.5 410L900 401L900 601L878.5 601C857 601 814 601 771.2 601C728.3 601 685.7 601 642.8 601C600 601 557 601 514.2 601C471.3 601 428.7 601 385.8 601C343 601 300 601 257.2 601C214.3 601 171.7 601 128.8 601C86 601 43 601 21.5 601L0 601Z" fill="#00c6cf"></path>
	<path d="M0 482L21.5 478.2C43 474.3 86 466.7 128.8 461.2C171.7 455.7 214.3 452.3 257.2 461C300 469.7 343 490.3 385.8 490.8C428.7 491.3 471.3 471.7 514.2 462.8C557 454 600 456 642.8 454.5C685.7 453 728.3 448 771.2 456.5C814 465 857 487 878.5 498L900 509L900 601L878.5 601C857 601 814 601 771.2 601C728.3 601 685.7 601 642.8 601C600 601 557 601 514.2 601C471.3 601 428.7 601 385.8 601C343 601 300 601 257.2 601C214.3 601 171.7 601 128.8 601C86 601 43 601 21.5 601L0 601Z" fill="#00b2d8"></path>
	<path d="M0 487L21.5 488.8C43 490.7 86 494.3 128.8 493.3C171.7 492.3 214.3 486.7 257.2 483.7C300 480.7 343 480.3 385.8 488.8C428.7 497.3 471.3 514.7 514.2 516.7C557 518.7 600 505.3 642.8 505C685.7 504.7 728.3 517.3 771.2 524.5C814 531.7 857 533.3 878.5 534.2L900 535L900 601L878.5 601C857 601 814 601 771.2 601C728.3 601 685.7 601 642.8 601C600 601 557 601 514.2 601C471.3 601 428.7 601 385.8 601C343 601 300 601 257.2 601C214.3 601 171.7 601 128.8 601C86 601 43 601 21.5 601L0 601Z" fill="#009cd7"></path>
	<path d="M0 538L21.5 535.7C43 533.3 86 528.7 128.8 531.5C171.7 534.3 214.3 544.7 257.2 546.5C300 548.3 343 541.7 385.8 540.5C428.7 539.3 471.3 543.7 514.2 548.7C557 553.7 600 559.3 642.8 559.5C685.7 559.7 728.3 554.3 771.2 553.2C814 552 857 555 878.5 556.5L900 558L900 601L878.5 601C857 601 814 601 771.2 601C728.3 601 685.7 601 642.8 601C600 601 557 601 514.2 601C471.3 601 428.7 601 385.8 601C343 601 300 601 257.2 601C214.3 601 171.7 601 128.8 601C86 601 43 601 21.5 601L0 601Z" fill="#1d84d0"></path>
</svg>