<?xml version="1.0" encoding="UTF-8" standalone="no"?>
<!DOCTYPE svg PUBLIC "-//W3C//DTD SVG 1.1//EN" "http://www.w3.org/Graphics/SVG/1.1/DTD/svg11.dtd">
<svg width="100%" height="100%" viewBox="0 0 450 107" version="1.1" xmlns="http://www.w3.org/2000/svg" xmlns:xlink="http://www.w3.org/1999/xlink" xml:space="preserve" xmlns:serif="http://www.serif.com/" style="fill-rule:evenodd;clip-rule:evenodd;stroke-linejoin:round;stroke-miterlimit:2;">
    <g transform="matrix(1,0,0,1,-225,-193)">
        <path d="M225,221L235.75,214.6C246.5,208.15 268,195.35 289.4,195.85C310.85,196.35 332.15,210.15 353.6,216.15C375,222.15 396.5,220.35 417.9,217.9C439.35,215.5 460.65,212.5 482.1,208.6C503.5,204.65 525,199.85 546.4,196.65C567.85,193.5 589.15,192 610.6,194.75C632,197.5 653.5,204.5 664.25,208L675,211.5L675,300.5L225,300.5L225,221Z" style="fill:rgb(37,214,182);fill-rule:nonzero;"/>
    </g>
    <g transform="matrix(1,0,0,1,-225,-193)">
        <path d="M225,202.5L235.75,207.75C246.5,213 268,223.5 289.4,225.35C310.85,227.15 332.15,220.35 353.6,221.1C375,221.85 396.5,230.15 417.9,233.1C439.35,236 460.65,233.5 482.1,230C503.5,226.5 525,222 546.4,221.4C567.85,220.85 589.15,224.15 610.6,221.35C632,218.5 653.5,209.5 664.25,205L675,200.5L675,300.5L225,300.5L225,202.5Z" style="fill:rgb(0,198,207);fill-rule:nonzero;"/>
    </g>
    <g transform="matrix(1,0,0,1,-225,-193)">
        <path d="M225,241L235.75,239.1C246.5,237.15 268,233.35 289.4,230.6C310.85,227.85 332.15,226.15 353.6,230.5C375,234.85 396.5,245.15 417.9,245.4C439.35,245.65 460.65,235.85 482.1,231.4C503.5,227 525,228 546.4,227.25C567.85,226.5 589.15,224 610.6,228.25C632,232.5 653.5,243.5 664.25,249L675,254.5L675,300.5L225,300.5L225,241Z" style="fill:rgb(0,178,216);fill-rule:nonzero;"/>
    </g>
    <g transform="matrix(1,0,0,1,-225,-193)">
        <path d="M225,243.5L235.75,244.4C246.5,245.35 268,247.15 289.4,246.65C310.85,246.15 332.15,243.35 353.6,241.85C375,240.35 396.5,240.15 417.9,244.4C439.35,248.65 460.65,257.35 482.1,258.35C503.5,259.35 525,252.65 546.4,252.5C567.85,252.35 589.15,258.65 610.6,262.25C632,265.85 653.5,266.65 664.25,267.1L675,267.5L675,300.5L225,300.5L225,243.5Z" style="fill:rgb(0,156,215);fill-rule:nonzero;"/>
    </g>
    <g transform="matrix(1,0,0,1,-225,-193)">
        <path d="M225,269L235.75,267.85C246.5,266.65 268,264.35 289.4,265.75C310.85,267.15 332.15,272.35 353.6,273.25C375,274.15 396.5,270.85 417.9,270.25C439.35,269.65 460.65,271.85 482.1,274.35C503.5,276.85 525,279.65 546.4,279.75C567.85,279.85 589.15,277.15 610.6,276.6C632,276 653.5,277.5 664.25,278.25L675,279L675,300.5L225,300.5L225,269Z" style="fill:rgb(29,132,208);fill-rule:nonzero;"/>
    </g>
</svg>
