<svg id="visual" viewBox="0 0 900 600" width="900" height="600" xmlns="http://www.w3.org/2000/svg" xmlns:xlink="http://www.w3.org/1999/xlink" version="1.1">
	<path d="M0 33L16.7 38.5C33.3 44 66.7 55 100 54.5C133.3 54 166.7 42 200 39.3C233.3 36.7 266.7 43.3 300 48.5C333.3 53.7 366.7 57.3 400 59.8C433.3 62.3 466.7 63.7 500 65.3C533.3 67 566.7 69 600 65C633.3 61 666.7 51 700 47.5C733.3 44 766.7 47 800 51C833.3 55 866.7 60 883.3 62.5L900 65L900 0L883.3 0C866.7 0 833.3 0 800 0C766.7 0 733.3 0 700 0C666.7 0 633.3 0 600 0C566.7 0 533.3 0 500 0C466.7 0 433.3 0 400 0C366.7 0 333.3 0 300 0C266.7 0 233.3 0 200 0C166.7 0 133.3 0 100 0C66.7 0 33.3 0 16.7 0L0 0Z" fill="#1d84d0" stroke-linecap="round" stroke-linejoin="miter"></path>
</svg>